<svg width="24" height="24" viewBox="0 0 24 24" fill="none" xmlns="http://www.w3.org/2000/svg">
<path fill-rule="evenodd" clip-rule="evenodd" d="M11.9694 2C6.46483 2 2 6.58933 2 12.2474C2 16.7739 4.87462 20.6088 8.78899 21.9919C9.27829 22.0547 9.46177 21.7404 9.46177 21.4889C9.46177 21.2375 9.46177 20.6088 9.46177 19.7286C6.70948 20.3573 6.09786 18.3456 6.09786 18.3456C5.66972 17.1511 4.99694 16.8367 4.99694 16.8367C4.07951 16.2081 5.0581 16.2081 5.0581 16.2081C6.0367 16.2709 6.58716 17.2768 6.58716 17.2768C7.50459 18.8485 8.91131 18.4084 9.46177 18.1569C9.52294 17.4654 9.82875 17.0253 10.0734 16.7739C7.87156 16.5224 5.5474 15.6422 5.5474 11.6816C5.5474 10.55 5.91437 9.66984 6.58716 8.91543C6.52599 8.72682 6.15902 7.65808 6.70948 6.27499C6.70948 6.27499 7.56575 6.02352 9.46177 7.34374C10.2569 7.09227 11.1131 7.0294 11.9694 7.0294C12.8257 7.0294 13.682 7.15514 14.4771 7.34374C16.3731 6.02352 17.2294 6.27499 17.2294 6.27499C17.7798 7.65808 17.4128 8.72682 17.3517 8.97829C17.9633 9.66984 18.3914 10.6128 18.3914 11.7445C18.3914 15.7051 16.0673 16.5224 13.8654 16.7739C14.2324 17.0882 14.5382 17.7169 14.5382 18.6599C14.5382 20.043 14.5382 21.1117 14.5382 21.4889C14.5382 21.7404 14.7217 22.0547 15.211 21.9919C19.1865 20.6088 22 16.7739 22 12.2474C21.9388 6.58933 17.474 2 11.9694 2Z" fill="currentColor"/>
</svg>